<svg width="72" height="25" viewBox="0 0 72 25" fill="none" xmlns="http://www.w3.org/2000/svg">
<mask id="mask0_1_427" style="mask-type:luminance" maskUnits="userSpaceOnUse" x="0" y="0" width="72" height="25">
<path d="M0.664062 0.515625H71.1832V24.3381H0.664062V0.515625Z" fill="#A9AAA9"/>
</mask>
<g mask="url(#mask0_1_427)">
<path fill-rule="evenodd" clip-rule="evenodd" d="M65.567 0.491821H6.28189L5.63886 0.492644C5.45796 0.494288 5.2787 0.497577 5.09697 0.500866C4.70474 0.509912 4.30758 0.53458 3.91617 0.605297C3.52592 0.673067 3.1481 0.799193 2.7954 0.979436C2.08382 1.34815 1.50705 1.93241 1.14754 2.64868C0.968447 3.00628 0.844258 3.38882 0.779154 3.78343C0.708437 4.17813 0.683769 4.57776 0.673901 4.97656C0.668145 5.15993 0.668145 5.3433 0.664856 5.52585V19.3057C0.668145 19.4907 0.668145 19.67 0.673079 19.855C0.683769 20.2546 0.708437 20.6543 0.779154 21.0481C0.848226 21.4478 0.964168 21.8227 1.14754 22.1845C1.3268 22.5381 1.56032 22.8662 1.84237 23.1466C2.12049 23.4307 2.44257 23.6681 2.79622 23.8497C3.15556 24.0355 3.52147 24.1539 3.91617 24.2254C4.30655 24.2903 4.70128 24.3255 5.09697 24.3307C5.27952 24.3348 5.45878 24.3373 5.63886 24.3373L6.28353 24.3381H65.567L66.2059 24.3373C66.3868 24.3373 66.5702 24.3348 66.7503 24.3307C67.1452 24.3258 67.5391 24.2906 67.9286 24.2254C68.3233 24.1531 68.69 24.0355 69.0527 23.8497C69.7627 23.4805 70.3393 22.8982 70.7014 22.1845C70.8823 21.8227 71.0007 21.4478 71.0664 21.0481C71.1404 20.6534 71.1618 20.2546 71.1766 19.855C71.1783 19.67 71.1783 19.4907 71.1783 19.3057C71.1832 19.0886 71.1832 18.874 71.1832 18.6536V6.1771C71.1832 5.95837 71.1832 5.74211 71.1783 5.52585C71.1783 5.3433 71.1783 5.15993 71.1766 4.97656C71.169 4.5767 71.1322 4.17792 71.0664 3.78343C71.003 3.38895 70.8802 3.00636 70.7022 2.64868C70.3413 1.93314 69.7645 1.34919 69.0535 0.979436C68.6988 0.799178 68.319 0.673066 67.927 0.605297C67.5375 0.539783 67.1435 0.504866 66.7486 0.500866C66.5672 0.497297 66.3857 0.494556 66.2043 0.492644L65.567 0.491821Z" fill="#A9AAA9"/>
</g>
<path fill-rule="evenodd" clip-rule="evenodd" d="M5.64049 23.8167C5.46123 23.8167 5.28609 23.8142 5.10765 23.8101C4.73843 23.8052 4.3701 23.7725 4.00579 23.7122C3.66587 23.6532 3.33681 23.5431 3.02974 23.3858C2.72472 23.2298 2.44702 23.0255 2.20745 22.7806C1.96292 22.5375 1.75962 22.2561 1.60554 21.9476C1.44945 21.6362 1.34133 21.303 1.28485 20.9592C1.22426 20.5897 1.19155 20.2162 1.18699 19.8417C1.18288 19.7159 1.17877 19.2974 1.17877 19.2974V5.52576C1.17877 5.52576 1.18371 5.1138 1.18699 4.99292C1.19522 4.68045 1.21331 4.27342 1.28485 3.87708C1.34734 3.51034 1.45177 3.18718 1.60554 2.88623C1.8376 2.42327 2.17588 2.02176 2.59274 1.71451C3.00961 1.40725 3.49324 1.20296 4.00414 1.11831C4.36952 1.05775 4.73896 1.02504 5.1093 1.02046L5.64049 1.01306H66.2018L66.7404 1.02128C67.043 1.02786 67.4451 1.04678 67.8357 1.11749C68.1785 1.17681 68.5106 1.28713 68.8208 1.44476C69.281 1.68384 69.6783 2.0281 69.9805 2.44959C70.2827 2.87107 70.4812 3.35789 70.5599 3.8705C70.6273 4.24629 70.6487 4.63276 70.6619 4.99539C70.6635 5.16396 70.6635 5.34568 70.6635 5.52576C70.6684 5.74942 70.6684 5.96157 70.6684 6.17701V18.6535C70.6684 18.8698 70.6684 19.0811 70.6635 19.2949C70.6635 19.4882 70.6635 19.6658 70.661 19.8491C70.6538 20.2192 70.62 20.5883 70.5599 20.9535C70.4572 21.6432 70.1361 22.2818 69.6439 22.7757C69.3997 23.0248 69.1234 23.2279 68.8191 23.3842C68.5099 23.5431 68.1783 23.654 67.8357 23.7131C67.4714 23.7734 67.103 23.8058 66.7338 23.8101C66.5628 23.8142 66.3802 23.8167 66.2051 23.8167L65.5662 23.8175L5.64049 23.8167Z" fill="black"/>
<path fill-rule="evenodd" clip-rule="evenodd" d="M15.2605 12.5942C15.2457 10.9545 16.5877 10.1561 16.6502 10.1191C15.8896 8.9975 14.7104 8.84455 14.2968 8.83222C13.3076 8.72696 12.348 9.43248 11.8439 9.43248C11.33 9.43248 10.5538 8.84291 9.7175 8.861C8.64195 8.87744 7.63383 9.50813 7.08208 10.4867C5.94157 12.4832 6.79263 15.4163 7.8838 17.0296C8.4298 17.8206 9.0679 18.7029 9.90416 18.6717C10.7215 18.638 11.0266 18.1438 12.0133 18.1438C12.991 18.1438 13.2772 18.6717 14.1291 18.6519C15.0064 18.638 15.559 17.8576 16.0861 17.06C16.7176 16.1547 16.9709 15.2625 16.9807 15.2164C16.9602 15.2099 15.277 14.5603 15.2605 12.5942ZM13.6505 7.77147C14.0904 7.2156 14.3905 6.4591 14.3083 5.69026C13.671 5.71904 12.8759 6.13594 12.4171 6.6803C12.0117 7.15887 11.6499 7.94497 11.7428 8.68338C12.4582 8.73765 13.1925 8.31911 13.6505 7.77147ZM23.0928 15.7476H25.3039L24.2136 12.5004H24.1831L23.0928 15.7485V15.7476ZM25.5925 16.6711H22.8033L22.134 18.6725H20.9524L23.5944 11.2695H24.8221L27.4641 18.6725H26.2619L25.5917 16.6719L25.5925 16.6711ZM32.045 15.9738C32.045 14.8809 31.4859 14.1631 30.6348 14.1631C29.7977 14.1631 29.2344 14.8957 29.2344 15.9738C29.2344 17.0616 29.7977 17.7902 30.6348 17.7902C31.4859 17.7902 32.045 17.0764 32.045 15.9738ZM33.1699 15.9738C33.1699 17.6512 32.2827 18.7284 30.9431 18.7284C30.1834 18.7284 29.5798 18.3847 29.2649 17.7844H29.2402V20.4577H28.1441V13.2742H29.2048V14.1721H29.2246C29.5288 13.5932 30.1784 13.2183 30.9234 13.2183C32.2777 13.2183 33.1699 14.3012 33.1699 15.9738ZM37.9161 15.9738C37.9161 14.8809 37.3586 14.1631 36.5067 14.1631C35.6696 14.1631 35.1072 14.8957 35.1072 15.9738C35.1072 17.0616 35.6696 17.7902 36.5067 17.7902C37.3586 17.7902 37.9161 17.0764 37.9161 15.9738ZM39.0427 15.9738C39.0427 17.6512 38.1546 18.7284 36.8159 18.7284C36.0553 18.7284 35.4517 18.3847 35.1376 17.7844H35.1121V20.4577H34.016V13.2742H35.0768V14.1721H35.0965C35.4008 13.5932 36.0504 13.2183 36.7953 13.2183C38.1497 13.2183 39.0427 14.3012 39.0427 15.9738ZM42.9238 16.6094C43.0044 17.3437 43.7099 17.8264 44.6728 17.8264C45.5963 17.8264 46.2599 17.3437 46.2599 16.6818C46.2599 16.1062 45.8594 15.7633 44.9113 15.5273L43.9624 15.2962C42.6188 14.9673 41.9947 14.3325 41.9947 13.3005C41.9947 12.0235 43.0965 11.1461 44.658 11.1461C46.2039 11.1461 47.2647 12.0235 47.3 13.3005H46.1941C46.1283 12.5613 45.5247 12.1156 44.6424 12.1156C43.7601 12.1156 43.1565 12.567 43.1565 13.2232C43.1565 13.747 43.5422 14.0545 44.4854 14.2914L45.2912 14.4904C46.7935 14.8505 47.4168 15.4607 47.4168 16.5436C47.4168 17.9283 46.3265 18.7958 44.5923 18.7958C42.9691 18.7958 41.873 17.9489 41.8022 16.6094H42.9238ZM49.7801 11.9972V13.2742H50.7948V14.1524H49.7801V17.1274C49.7801 17.5904 49.984 17.805 50.4297 17.805C50.5415 17.805 50.7191 17.7902 50.7898 17.7803V18.6519C50.5893 18.6899 50.3854 18.7069 50.1813 18.7029C49.1017 18.7029 48.6798 18.2918 48.6798 17.2458V14.1524H47.9044V13.2742H48.6798V11.9972H49.7801ZM55.328 15.9738C55.328 14.8094 54.8009 14.1212 53.9137 14.1212C53.0256 14.1212 52.4994 14.8135 52.4994 15.9738C52.4994 17.1439 53.0256 17.8255 53.9137 17.8255C54.8009 17.8255 55.328 17.1431 55.328 15.9738ZM51.3827 15.9738C51.3827 14.2757 52.3711 13.2084 53.9129 13.2084C55.4604 13.2084 56.4439 14.2757 56.4439 15.9738C56.4439 17.6759 55.4653 18.7391 53.9129 18.7391C52.3612 18.7391 51.3827 17.6767 51.3827 15.9738ZM57.3467 13.2742H58.391L58.3918 14.1935H58.4165C58.5843 13.5826 59.0711 13.2183 59.7001 13.2183C59.8572 13.2183 59.9887 13.2397 60.0751 13.2594V14.2955C59.9887 14.2601 59.7955 14.2297 59.5833 14.2297C58.8786 14.2297 58.4428 14.7116 58.4428 15.4713V18.6725H57.3467V13.2742ZM61.4228 15.4763H64.0895C64.0648 14.6499 63.5426 14.1064 62.782 14.1064C62.0255 14.1064 61.4787 14.6606 61.4228 15.4763ZM65.1247 17.0871C64.9767 18.0673 64.0344 18.7391 62.8273 18.7391C61.2756 18.7391 60.3111 17.6866 60.3111 15.9993C60.3111 14.3062 61.2814 13.2084 62.7812 13.2084C64.258 13.2084 65.1856 14.2346 65.1856 15.871V16.2509H61.417V16.3167C61.417 17.2409 61.991 17.8461 62.8527 17.8461C63.4612 17.8461 63.9382 17.5542 64.0853 17.0871H65.1247ZM22.2319 8.75081H22.8946C23.6297 8.75081 24.054 8.28786 24.054 7.47133C24.054 6.66796 23.6232 6.19926 22.8946 6.19926H22.2319V8.75081ZM22.9555 5.69684C23.9981 5.69684 24.6099 6.3448 24.6099 7.46476C24.6099 8.60033 24.0031 9.25405 22.9555 9.25405H21.685V5.69684H22.9555ZM27.1911 7.91043C27.1911 7.32826 26.932 6.98865 26.479 6.98865C26.0234 6.98865 25.7677 7.32826 25.7677 7.90961C25.7677 8.49672 26.0234 8.83468 26.479 8.83468C26.932 8.83468 27.1911 8.49426 27.1911 7.91043ZM25.2266 7.91043C25.2266 7.04539 25.7035 6.51748 26.479 6.51748C27.2519 6.51748 27.7297 7.04539 27.7297 7.91043C27.7297 8.78041 27.2544 9.30585 26.4798 9.30585C25.7019 9.30585 25.2266 8.78041 25.2266 7.91043ZM31.0558 9.25405H30.5131L29.9646 7.27645H29.9235L29.3775 9.25405H28.8397L28.1079 6.56929H28.6391L29.1144 8.6176H29.1539L29.699 6.57011H30.2006L30.7466 8.6176H30.7877L31.2614 6.57011H31.7852L31.0558 9.25405ZM32.4002 6.56929H32.9043V6.99605H32.9429C33.072 6.69756 33.336 6.51748 33.7356 6.51748C34.3277 6.51748 34.6541 6.87682 34.6541 7.51656V9.25405H34.1303V7.64895C34.1303 7.21725 33.9453 7.00263 33.5572 7.00263C33.1707 7.00263 32.924 7.26494 32.924 7.68348V9.25405H32.4002V6.56929ZM35.4879 9.25405H36.0125V5.52087H35.4887L35.4879 9.25405ZM38.7047 7.91043C38.7047 7.32826 38.4457 6.98865 37.9926 6.98865C37.5371 6.98865 37.2813 7.32826 37.2813 7.90961C37.2813 8.49672 37.5362 8.83468 37.9926 8.83468C38.4449 8.83468 38.7047 8.49426 38.7047 7.91043ZM36.7394 7.91043C36.7394 7.04539 37.2172 6.51748 37.9926 6.51748C38.7655 6.51748 39.2425 7.04539 39.2425 7.91043C39.2425 8.78041 38.7672 9.30585 37.9926 9.30585C37.2155 9.30585 36.7394 8.78041 36.7394 7.91043ZM41.4996 8.26566V8.04118L40.8525 8.08229C40.4866 8.10696 40.3213 8.23359 40.3213 8.47041C40.3213 8.71134 40.5285 8.85195 40.813 8.85195C41.2077 8.85195 41.4996 8.59869 41.4996 8.26566ZM39.7942 8.49426C39.7942 8.01158 40.1503 7.73282 40.781 7.69335L41.4996 7.65224V7.41953C41.4996 7.13666 41.3146 6.9755 40.9569 6.9755C40.665 6.9755 40.4619 7.08486 40.4035 7.27399H39.897C39.9505 6.81351 40.3789 6.51748 40.9816 6.51748C41.6468 6.51748 42.0218 6.85298 42.0218 7.41953V9.25405H41.5177V8.87662H41.4758C41.3179 9.14551 41.0276 9.29845 40.679 9.29845C40.1675 9.29845 39.7942 8.98598 39.7942 8.49426ZM43.2503 7.91043C43.2503 8.47946 43.5159 8.82317 43.9599 8.82317C44.4015 8.82317 44.6737 8.47452 44.6737 7.9129C44.6737 7.35375 44.3982 7.00016 43.9599 7.00016C43.5192 7.00016 43.2503 7.34552 43.2503 7.91043ZM42.71 7.91043C42.71 7.06184 43.1409 6.52488 43.8119 6.52488C44.1745 6.52488 44.4813 6.70003 44.6252 6.99605H44.6646V5.5217H45.1876V9.25487H44.686V8.82975H44.6449C44.4862 9.12331 44.1762 9.29845 43.8111 9.29845C43.1368 9.29845 42.71 8.76068 42.71 7.91043ZM49.3188 7.91043C49.3188 7.32826 49.0606 6.98865 48.6067 6.98865C48.1511 6.98865 47.8954 7.32826 47.8954 7.90961C47.8954 8.49672 48.1511 8.83468 48.6067 8.83468C49.0606 8.83468 49.3188 8.49426 49.3188 7.91043ZM47.3543 7.91043C47.3543 7.04539 47.8329 6.51748 48.6067 6.51748C49.3796 6.51748 49.8573 7.04539 49.8573 7.91043C49.8573 8.78041 49.3821 9.30585 48.6075 9.30585C47.8304 9.30585 47.3551 8.78041 47.3551 7.91043H47.3543ZM50.5604 6.56929H51.0645V6.99605H51.1031C51.2322 6.69756 51.4962 6.51748 51.895 6.51748C52.487 6.51748 52.8143 6.87682 52.8143 7.51656V9.25405H52.2905V7.64895C52.2905 7.21725 52.1055 7.00263 51.7174 7.00263C51.3309 7.00263 51.0842 7.26494 51.0842 7.68348V9.25405H50.5604V6.56929ZM55.7737 5.90159V6.58162H56.3485V7.02812H55.7729V8.40792C55.7729 8.68914 55.888 8.8133 56.1487 8.8133C56.2292 8.8133 56.2753 8.80755 56.3485 8.80015V9.24171C56.2543 9.25893 56.1589 9.26801 56.0631 9.26885C55.481 9.26885 55.2491 9.06163 55.2491 8.54442V7.02812H54.8281V6.58162H55.2491V5.90159H55.7737ZM57.0639 5.5217H57.5827V7.00099H57.6238C57.7521 6.70003 58.0333 6.51995 58.433 6.51995C58.9979 6.51995 59.3473 6.88258 59.3473 7.52067V9.25405H58.8227V7.65141C58.8227 7.223 58.6254 7.0051 58.2553 7.0051C57.8261 7.0051 57.5868 7.27974 57.5868 7.68595V9.25405H57.0639V5.5217ZM60.5577 7.66375H61.8981C61.8866 7.24274 61.6333 6.9681 61.2452 6.9681C60.8587 6.9681 60.5873 7.24521 60.5577 7.66375ZM62.3997 8.52879C62.2813 9.01065 61.857 9.30585 61.2501 9.30585C60.4903 9.30585 60.0249 8.77877 60.0249 7.9203C60.0249 7.06184 60.5002 6.51748 61.2485 6.51748C61.9869 6.51748 62.4326 7.0273 62.4326 7.87097V8.0568H60.5577V8.0864C60.5758 8.55675 60.8455 8.85524 61.2649 8.85524C61.5823 8.85524 61.7994 8.7393 61.8964 8.52961H62.4005L62.3997 8.52879Z" fill="#FFFFFE"/>
</svg>
