<svg width="34" height="36" viewBox="0 0 34 36" fill="none" xmlns="http://www.w3.org/2000/svg">
<g filter="url(#filter0_d_1_20)">
<path d="M18.2299 23.5547V17.4183H22.0774V18.1575H19.0849V20.0812H21.543V20.8027H19.0849V22.8155H22.0774V23.5547H18.2299ZM23.0547 23.5547V19.0927H23.883V19.4044C23.978 19.345 24.0997 19.2856 24.2481 19.2262C24.3966 19.1669 24.5539 19.1164 24.7202 19.0748C24.8864 19.0273 25.0467 19.0036 25.2011 19.0036C25.6167 19.0036 25.9344 19.0778 26.1541 19.2262C26.3738 19.3687 26.5252 19.6033 26.6083 19.9298C26.6974 20.2505 26.7419 20.675 26.7419 21.2034V23.5547H25.9047V21.248C25.9047 20.8798 25.8839 20.5859 25.8424 20.3662C25.8008 20.1466 25.7177 19.9892 25.593 19.8942C25.4683 19.7933 25.2813 19.7428 25.0319 19.7428C24.8953 19.7428 24.7528 19.7577 24.6044 19.7873C24.4619 19.817 24.3253 19.8556 24.1947 19.9031C24.07 19.9506 23.9661 19.9952 23.883 20.0367V23.5547H23.0547Z" fill="white"/>
<path d="M7.97067 11.6797L9.61832 5.54328H11.3194L12.9671 11.6797H12.1032L11.7024 10.2102H9.22645L8.82567 11.6797H7.97067ZM9.39567 9.47984H11.5421L10.6871 6.25578H10.2507L9.39567 9.47984ZM13.7382 11.6797V7.21766H14.5665V7.79656C14.6734 7.71937 14.8099 7.63625 14.9762 7.54719C15.1424 7.45812 15.3235 7.375 15.5195 7.29781C15.7214 7.21469 15.9203 7.15531 16.1162 7.11969V7.94797C15.9262 7.98359 15.7303 8.03406 15.5284 8.09937C15.3324 8.16469 15.1484 8.23594 14.9762 8.31312C14.8099 8.38437 14.6734 8.44969 14.5665 8.50906V11.6797H13.7382Z" fill="#03CCFF"/>
<path d="M18.9288 2.79211C18.9228 2.86195 18.9117 2.93178 18.9117 3.00246C18.9109 6.40212 18.9109 9.80177 18.9117 13.2023C18.9117 13.273 18.9211 13.3428 18.9271 13.4135C18.9245 14.455 18.9143 15.4974 18.9237 16.5389C18.9254 16.7671 18.8632 16.8293 18.635 16.8276C17.5934 16.8182 16.5511 16.8285 15.5095 16.831C15.415 16.8259 15.3213 16.8157 15.2268 16.8157C11.8672 16.8148 8.50754 16.8131 5.14877 16.8191C4.95715 16.8191 4.88221 16.797 4.88306 16.5704C4.89073 11.9777 4.88903 7.38488 4.88903 2.79211C9.56866 2.79211 14.2491 2.79211 18.9288 2.79211ZM11.9098 3.51684C9.89483 3.51684 7.87905 3.52025 5.86413 3.51173C5.65633 3.51088 5.60779 3.55857 5.60864 3.76722C5.61545 7.79025 5.61631 11.8124 5.60779 15.8355C5.60694 16.0552 5.67422 16.0833 5.86838 16.0833C9.89142 16.0773 13.9136 16.0773 17.9366 16.0841C18.1334 16.0841 18.1811 16.0373 18.1811 15.8406C18.1751 11.8175 18.1742 7.79536 18.1819 3.77233C18.1828 3.54494 18.1112 3.51258 17.9094 3.51343C15.9089 3.51939 13.9093 3.51684 11.9098 3.51684Z" fill="#03CCFF"/>
<path d="M19.7292 13.4152C19.7497 13.0558 19.7497 13.0558 20.1201 13.0558C23.0522 13.0558 25.9843 13.0558 28.9156 13.055C29.0016 13.055 29.0876 13.0439 29.1736 13.038C29.1736 17.7184 29.1736 22.3981 29.1736 27.0786C24.5817 27.0786 19.9898 27.0769 15.3979 27.0845C15.1765 27.0845 15.1467 27.0181 15.1467 26.8214C15.1526 23.8893 15.1509 20.9571 15.1509 18.025C15.1509 17.6546 15.1509 17.6546 15.5103 17.6341C15.868 17.6546 15.868 17.6546 15.868 18.0097C15.868 20.6966 15.8705 23.3834 15.8629 26.0703C15.862 26.2951 15.8986 26.3743 16.1524 26.3743C20.1669 26.3649 24.1815 26.3658 28.196 26.3726C28.4115 26.3726 28.466 26.3189 28.466 26.1026C28.4591 22.0881 28.4583 18.0736 28.4677 14.0591C28.4685 13.8053 28.3893 13.7687 28.1636 13.7695C25.4768 13.7772 22.7899 13.7746 20.1031 13.7746C19.7497 13.7729 19.7497 13.7729 19.7292 13.4152Z" fill="white"/>
<path d="M8.1174 19.2138C7.70862 19.626 7.33817 19.9905 6.97879 20.3652C6.87063 20.4776 6.80847 20.5015 6.68583 20.3746C6.3273 20.0033 6.32049 20.0092 6.68243 19.6473C7.23598 19.0937 7.79123 18.5436 8.33967 17.9849C8.44442 17.8785 8.50148 17.8657 8.61389 17.9807C9.23898 18.6185 9.87088 19.2496 10.5079 19.8764C10.6135 19.9803 10.6101 20.0314 10.5079 20.1336C10.1289 20.5134 10.1332 20.5168 9.74995 20.1344C9.46466 19.85 9.17851 19.5655 8.89237 19.282C8.88386 19.2734 8.86597 19.2751 8.83191 19.2675C8.83191 19.339 8.83191 19.4071 8.83191 19.4744C8.83191 20.5892 8.83106 21.7031 8.83191 22.8179C8.83276 23.8679 9.47999 24.5109 10.5351 24.5126C11.0572 24.5134 11.5784 24.5168 12.1004 24.51C12.2384 24.5083 12.2895 24.5347 12.2895 24.6889C12.2895 25.2262 12.2971 25.2331 11.7495 25.2245C11.1815 25.216 10.6126 25.256 10.0446 25.1896C9.10783 25.0806 8.25196 24.2213 8.15572 23.2794C8.07737 22.5147 8.13273 21.7474 8.11996 20.9818C8.10974 20.4146 8.1174 19.8466 8.1174 19.2138Z" fill="white"/>
<path d="M12.9946 24.8497C12.9946 24.5142 12.9946 24.5142 13.4187 24.5142C13.7083 24.5142 13.7083 24.5142 13.7083 24.9621C13.7083 25.2278 13.7083 25.2278 13.2595 25.2278C12.9946 25.227 12.9946 25.227 12.9946 24.8497Z" fill="white"/>
<path d="M25.2324 10.6576C25.2324 9.37763 25.24 8.16834 25.2298 6.95989C25.2221 6.0129 24.5562 5.36567 23.6041 5.35715C23.0667 5.35289 22.5293 5.35119 21.992 5.35971C21.8387 5.36226 21.7722 5.33927 21.7748 5.16043C21.7825 4.6435 21.7739 4.63668 22.2875 4.6452C22.864 4.65457 23.4406 4.61284 24.0162 4.68011C24.9564 4.78912 25.8072 5.6484 25.9111 6.58603C25.9682 7.09956 25.9392 7.61223 25.9443 8.1249C25.952 8.94671 25.946 9.76852 25.946 10.6474C26.1393 10.4541 26.302 10.2923 26.4646 10.1296C26.6827 9.9116 26.9058 9.69869 27.1161 9.47387C27.2107 9.37252 27.2626 9.38359 27.3563 9.47642C27.7438 9.8588 27.7472 9.85539 27.3665 10.2361C26.824 10.7785 26.279 11.3176 25.7425 11.8652C25.6284 11.981 25.5679 12.0142 25.4333 11.8763C24.8168 11.241 24.1883 10.6176 23.5581 9.99591C23.4576 9.89627 23.4457 9.84517 23.5521 9.73872C23.9345 9.35634 23.9294 9.35123 24.3101 9.73276C24.6047 10.0266 24.8977 10.3212 25.2324 10.6576Z" fill="#03CCFF"/>
<path d="M20.7001 5.35636C20.3552 5.35636 20.3552 5.35636 20.3552 4.91607C20.3552 4.6427 20.3552 4.6427 20.7963 4.6427C21.0688 4.6427 21.045 4.6444 21.0765 5.10683C21.1003 5.46792 20.8619 5.33251 20.7001 5.35636Z" fill="#03CCFF"/>
<path d="M26.6265 14.4763C26.9339 14.4763 27.2422 14.4823 27.5488 14.4737C27.6952 14.4695 27.7566 14.5027 27.754 14.6679C27.7438 15.299 27.7446 15.93 27.7532 16.5602C27.7549 16.7135 27.7004 16.7407 27.5624 16.7416C27.0369 16.7467 27.0369 16.7518 27.0369 16.2357C27.0369 15.9598 27.0276 15.683 27.0404 15.408C27.0489 15.2368 26.9841 15.1951 26.824 15.1993C26.4536 15.2095 26.0823 15.1951 25.7118 15.2061C25.5415 15.2112 25.4768 15.1678 25.4785 14.9839C25.4836 14.4771 25.4751 14.4771 25.9861 14.4771C26.2007 14.4763 26.4136 14.4763 26.6265 14.4763Z" fill="white"/>
</g>
<defs>
<filter id="filter0_d_1_20" x="0.883057" y="2.79211" width="32.2906" height="32.2924" filterUnits="userSpaceOnUse" color-interpolation-filters="sRGB">
<feFlood flood-opacity="0" result="BackgroundImageFix"/>
<feColorMatrix in="SourceAlpha" type="matrix" values="0 0 0 0 0 0 0 0 0 0 0 0 0 0 0 0 0 0 127 0" result="hardAlpha"/>
<feOffset dy="4"/>
<feGaussianBlur stdDeviation="2"/>
<feComposite in2="hardAlpha" operator="out"/>
<feColorMatrix type="matrix" values="0 0 0 0 0 0 0 0 0 0 0 0 0 0 0 0 0 0 0.25 0"/>
<feBlend mode="normal" in2="BackgroundImageFix" result="effect1_dropShadow_1_20"/>
<feBlend mode="normal" in="SourceGraphic" in2="effect1_dropShadow_1_20" result="shape"/>
</filter>
</defs>
</svg>
