<svg width="81" height="25" viewBox="0 0 81 25" fill="none" xmlns="http://www.w3.org/2000/svg">
<path fill-rule="evenodd" clip-rule="evenodd" d="M77.5529 24.3619H3.28485C1.62104 24.3619 0.31427 23.0502 0.31427 21.3807V3.49685C0.31427 1.82736 1.62104 0.515625 3.28485 0.515625H77.5529C79.2167 0.515625 80.5235 1.82736 80.5235 3.49685V21.3807C80.5235 23.0502 79.2167 24.3619 77.5529 24.3619Z" fill="black"/>
<path d="M77.5529 0.992621C78.9193 0.992621 80.0479 2.12549 80.0479 3.49614V21.3807C80.0479 22.752 78.9193 23.8849 77.5529 23.8849H3.28485C1.91845 23.8849 0.789847 22.752 0.789847 21.3807V3.49685C0.789847 2.12549 1.91845 0.992621 3.28485 0.992621H77.5529ZM77.5529 0.515625H3.28485C1.62104 0.515625 0.31427 1.88699 0.31427 3.49685V21.3807C0.31427 23.0502 1.62104 24.3619 3.28485 24.3619H77.5529C79.2167 24.3619 80.5235 23.0502 80.5235 21.3807V3.49685C80.5235 1.88699 79.2167 0.515625 77.5529 0.515625Z" fill="#A6A6A6"/>
<path d="M28.4586 6.77409C28.4586 7.24044 28.3393 7.64858 28.0419 7.93961C27.6842 8.28954 27.2668 8.46487 26.7302 8.46487C26.1943 8.46487 25.7769 8.28954 25.4192 7.93961C25.0614 7.59038 24.8832 7.18223 24.8832 6.65768C24.8832 6.13312 25.0614 5.72569 25.4192 5.37575C25.7769 5.02581 26.1943 4.8512 26.7302 4.8512C26.9687 4.8512 27.2072 4.9094 27.4457 5.02581C27.6842 5.14293 27.863 5.25934 27.9823 5.43396L27.6842 5.72498C27.4457 5.43396 27.1476 5.31755 26.7302 5.31755C26.3731 5.31755 26.0154 5.43396 25.7769 5.72569C25.4788 5.95851 25.3595 6.30774 25.3595 6.71588C25.3595 7.12403 25.4788 7.47397 25.7769 7.70679C26.075 7.93961 26.3731 8.11493 26.7302 8.11493C27.1476 8.11493 27.4457 7.99781 27.7438 7.70679C27.9227 7.53217 28.0419 7.29864 28.0419 7.00762H26.7302V6.54127H28.4586V6.77409ZM31.1999 5.31755H29.5907V6.42486H31.0814V6.83229H29.5907V7.93961H31.1999V8.40596H29.1145V4.9094H31.1999V5.31755ZM33.1668 8.40596H32.6898V5.31755H31.6769V4.9094H34.1797V5.31755H33.1668V8.40596ZM35.9081 8.40596V4.9094H36.3851V8.40596H35.9081ZM38.4116 8.40596H37.9346V5.31755H36.9217V4.9094H39.3649V5.31755H38.352V8.40596H38.4116ZM44.0731 7.93961C43.7154 8.28954 43.298 8.46487 42.7621 8.46487C42.2255 8.46487 41.8081 8.28954 41.4511 7.93961C41.0933 7.59038 40.9144 7.18223 40.9144 6.65768C40.9144 6.13312 41.0933 5.72569 41.4511 5.37575C41.8081 5.02581 42.2255 4.8512 42.7621 4.8512C43.298 4.8512 43.7154 5.02581 44.0731 5.37575C44.4309 5.72569 44.609 6.13312 44.609 6.65768C44.609 7.18223 44.4309 7.59038 44.0731 7.93961ZM41.8088 7.64858C42.0466 7.8814 42.4043 8.05673 42.7621 8.05673C43.1191 8.05673 43.4769 7.93961 43.7154 7.64858C43.9539 7.41505 44.1327 7.06582 44.1327 6.65768C44.1327 6.24953 44.0135 5.9003 43.7154 5.66677C43.4769 5.43396 43.1191 5.25934 42.7621 5.25934C42.4043 5.25934 42.0466 5.37575 41.8081 5.66677C41.6764 5.79603 41.5717 5.95021 41.5001 6.12034C41.4286 6.29046 41.3916 6.47312 41.3914 6.65768C41.3914 7.06582 41.5114 7.41505 41.8088 7.64858ZM45.2649 8.40596V4.9094H45.8015L47.5299 7.64858V4.9094H48.0062V8.40596H47.5299L45.6823 5.55037V8.40596H45.2649ZM40.7952 13.4456C39.3812 13.4456 38.2611 14.5231 38.2611 16.0194C38.2611 17.4561 39.3812 18.5939 40.7952 18.5939C42.2098 18.5939 43.3299 17.5164 43.3299 16.0194C43.3299 14.4635 42.2091 13.4456 40.7952 13.4456ZM40.7952 17.5164C40.0293 17.5164 39.3812 16.8577 39.3812 15.9598C39.3812 15.0619 40.0293 14.4032 40.7959 14.4032C41.5625 14.4032 42.2098 15.0023 42.2098 15.9598C42.2098 16.8577 41.5611 17.5164 40.7952 17.5164ZM35.3147 13.4456C33.9 13.4456 32.7807 14.5231 32.7807 16.0194C32.7807 17.4561 33.9 18.5939 35.3147 18.5939C36.7294 18.5939 37.8487 17.5164 37.8487 16.0194C37.8487 14.4635 36.7294 13.4456 35.3147 13.4456ZM35.3147 17.5164C34.5481 17.5164 33.9 16.8577 33.9 15.9598C33.9 15.0619 34.5488 14.4032 35.3147 14.4032C36.0813 14.4032 36.7294 15.0023 36.7294 15.9598C36.7294 16.8577 36.0806 17.5164 35.3147 17.5164ZM28.773 14.2236V15.3011H31.3071C31.2482 15.9002 31.0125 16.3786 30.7179 16.6782C30.3637 17.0373 29.7746 17.4561 28.773 17.4561C27.1816 17.4561 26.0026 16.1997 26.0026 14.5828C26.0026 12.9665 27.2405 11.7094 28.773 11.7094C29.5978 11.7094 30.2459 12.0686 30.7179 12.4881L31.4838 11.7094C30.8358 11.1111 30.0102 10.6319 28.8319 10.6319C26.7096 10.6319 24.8832 12.4278 24.8832 14.5828C24.8832 16.7378 26.7103 18.5336 28.8319 18.5336C30.0102 18.5336 30.8358 18.1744 31.5427 17.3965C32.2497 16.6782 32.4854 15.6603 32.4854 14.8823C32.4854 14.6431 32.4854 14.4032 32.4265 14.2236H28.773ZM55.5295 15.0612C55.2939 14.4635 54.7047 13.4456 53.4079 13.4456C52.1111 13.4456 51.0506 14.4635 51.0506 16.0194C51.0506 17.4561 52.1111 18.5939 53.5257 18.5939C54.6458 18.5939 55.3528 17.8756 55.5885 17.4561L54.7637 16.8577C54.4691 17.2765 54.1149 17.5761 53.5257 17.5761C52.9366 17.5761 52.5831 17.3369 52.2878 16.7981L55.6474 15.3614L55.5295 15.0612ZM52.1111 15.9002C52.1111 14.9419 52.8777 14.4032 53.4079 14.4032C53.8203 14.4032 54.2327 14.6431 54.3513 14.9427L52.1111 15.9002ZM49.3414 18.3533H50.4615V10.8719H49.3414V18.3533ZM47.5739 13.9837C47.2786 13.6841 46.8073 13.3853 46.2182 13.3853C44.9803 13.3853 43.8013 14.5224 43.8013 15.9591C43.8013 17.3958 44.9213 18.474 46.2182 18.474C46.8073 18.474 47.2794 18.1744 47.515 17.8756H47.5739V18.2348C47.5739 19.1923 47.0437 19.7311 46.2182 19.7311C45.5701 19.7311 45.0988 19.2519 44.981 18.8332L44.0376 19.2519C44.3322 19.9107 45.0399 20.7489 46.2771 20.7489C47.5739 20.7489 48.6351 19.9703 48.6351 18.1148V13.5649H47.5739V13.9837ZM46.2764 17.5157C45.5105 17.5157 44.8624 16.857 44.8624 15.9591C44.8624 15.0612 45.5105 14.4025 46.2764 14.4025C47.043 14.4025 47.6321 15.0612 47.6321 15.9591C47.6321 16.857 47.043 17.5157 46.2764 17.5157ZM60.6573 10.8711H58.0047V18.3533H59.1248V15.5403H60.6573C61.8945 15.5403 63.0735 14.6424 63.0735 13.205C63.0735 11.7691 61.8952 10.8711 60.6573 10.8711ZM60.7162 14.4628H59.1248V11.8883H60.7162C61.541 11.8883 62.0123 12.6066 62.0123 13.1454C61.9534 13.8041 61.4821 14.4628 60.7162 14.4628ZM67.4935 13.3853C66.6687 13.3853 65.8432 13.7445 65.5486 14.5224L66.5509 14.9412C66.7865 14.5224 67.14 14.4025 67.5524 14.4025C68.1416 14.4025 68.6725 14.7616 68.7307 15.3607V15.4204C68.5547 15.3004 68.0826 15.1208 67.6113 15.1208C66.5509 15.1208 65.4897 15.7199 65.4897 16.7974C65.4897 17.8146 66.3741 18.4726 67.3167 18.4726C68.0834 18.4726 68.4368 18.1141 68.7314 17.7549H68.7903V18.3533H69.8508V15.48C69.733 14.1633 68.7307 13.3853 67.4935 13.3853ZM67.3757 17.5157C67.0222 17.5157 66.4919 17.3361 66.4919 16.857C66.4919 16.2586 67.14 16.0791 67.6702 16.0791C68.1423 16.0791 68.3779 16.1983 68.6725 16.3183C68.5547 17.0366 67.9648 17.5157 67.3757 17.5157ZM73.5638 13.5649L72.3266 16.7974H72.2677L70.9709 13.5649H69.7926L71.7375 18.1141L70.6174 20.6283H71.7368L74.7429 13.5649H73.5638ZM63.6626 18.3533H64.7827V10.8719H63.6626V18.3533Z" fill="white"/>
<path fill-rule="evenodd" clip-rule="evenodd" d="M6.32832 4.43372C6.15299 4.61827 6.09479 4.92349 6.09479 5.29117V18.8039C6.09479 19.1702 6.2112 19.4761 6.38652 19.66L6.44473 19.721L13.6834 12.1388V12.0167L6.32832 4.43372Z" fill="url(#paint0_linear_1_434)"/>
<path fill-rule="evenodd" clip-rule="evenodd" d="M16.0181 14.7061L13.626 12.199V12.0159L16.0181 9.50879L16.077 9.56983L18.9376 11.2819C19.7539 11.7717 19.7539 12.5667 18.9376 13.055L16.0181 14.7061Z" fill="url(#paint1_linear_1_434)"/>
<path fill-rule="evenodd" clip-rule="evenodd" d="M16.077 14.6454L13.6253 12.0773L6.32843 19.7206C6.62016 20.0258 7.02902 20.0258 7.55428 19.7816L16.077 14.6454Z" fill="url(#paint2_linear_1_434)"/>
<path fill-rule="evenodd" clip-rule="evenodd" d="M16.077 9.50888L7.55428 4.4337C7.02902 4.12848 6.62016 4.19023 6.32843 4.49616L13.6253 12.0777L16.077 9.50888Z" fill="url(#paint3_linear_1_434)"/>
<path opacity="0.2" fill-rule="evenodd" clip-rule="evenodd" d="M16.0188 14.5842L7.55428 19.5984C7.08722 19.9036 6.67908 19.8425 6.38664 19.5984L6.32843 19.6594L6.38664 19.7205C6.67908 19.9646 7.08722 20.0257 7.55428 19.7205L16.0188 14.5842Z" fill="black"/>
<path opacity="0.12" d="M6.32832 19.5985C6.15299 19.4146 6.09479 19.1087 6.09479 18.7424V18.8035C6.09479 19.1705 6.21191 19.4757 6.38652 19.6595V19.5985H6.32832ZM18.9368 12.8723L16.0187 14.5843L16.0769 14.6454L18.9375 12.9333C19.3456 12.6891 19.521 12.3832 19.521 12.0773C19.521 12.3832 19.2867 12.6281 18.9368 12.8723Z" fill="black"/>
<path opacity="0.25" fill-rule="evenodd" clip-rule="evenodd" d="M7.55417 4.49551L18.9368 11.2821C19.2874 11.5269 19.521 11.7718 19.521 12.0771C19.521 11.7718 19.3456 11.4659 18.9368 11.221L7.55417 4.43446C6.73717 3.94469 6.09479 4.31238 6.09479 5.2905V5.35155C6.09479 4.43446 6.73717 4.00644 7.55417 4.49551Z" fill="white"/>
<defs>
<linearGradient id="paint0_linear_1_434" x1="694.908" y1="78.4243" x2="-471.926" y2="379.6" gradientUnits="userSpaceOnUse">
<stop stop-color="#00A0FF"/>
<stop offset="0.007" stop-color="#00A1FF"/>
<stop offset="0.26" stop-color="#00BEFF"/>
<stop offset="0.512" stop-color="#00D2FF"/>
<stop offset="0.76" stop-color="#00DFFF"/>
<stop offset="1" stop-color="#00E3FF"/>
</linearGradient>
<linearGradient id="paint1_linear_1_434" x1="651.758" y1="266.379" x2="-760.433" y2="266.379" gradientUnits="userSpaceOnUse">
<stop stop-color="#FFE000"/>
<stop offset="0.409" stop-color="#FFBD00"/>
<stop offset="0.775" stop-color="#FFA500"/>
<stop offset="1" stop-color="#FF9C00"/>
</linearGradient>
<linearGradient id="paint2_linear_1_434" x1="848.501" y1="152.46" x2="-148.599" y2="1750.71" gradientUnits="userSpaceOnUse">
<stop stop-color="#FF3A44"/>
<stop offset="1" stop-color="#C31162"/>
</linearGradient>
<linearGradient id="paint3_linear_1_434" x1="-174.811" y1="-423.501" x2="267.13" y2="291.461" gradientUnits="userSpaceOnUse">
<stop stop-color="#32A071"/>
<stop offset="0.069" stop-color="#2DA771"/>
<stop offset="0.476" stop-color="#15CF74"/>
<stop offset="0.801" stop-color="#06E775"/>
<stop offset="1" stop-color="#00F076"/>
</linearGradient>
</defs>
</svg>
