<svg width="14" height="13" viewBox="0 0 14 13" fill="none" xmlns="http://www.w3.org/2000/svg">
<path d="M0.152893 4.35628C0.20669 4.11711 0.251521 3.87793 0.323251 3.64796C0.556371 2.93964 1.00468 2.38771 1.59645 1.96456C2.30478 1.44022 3.10277 1.17345 3.96352 1.12746C4.88704 1.07226 5.81055 1.00787 6.73407 0.989471C7.39757 0.980272 8.06106 1.02627 8.7156 1.06306C9.15494 1.09066 9.59428 1.11826 10.0247 1.17345C10.8047 1.28384 11.513 1.5966 12.1227 2.11174C12.6338 2.54409 13.0104 3.06843 13.2256 3.71235C13.387 4.21829 13.3959 4.72424 13.3063 5.24857C13.2435 5.61653 13.0373 5.8925 12.849 6.18686C12.7324 6.37084 12.598 6.54562 12.4814 6.7296C12.4007 6.85839 12.2931 6.91358 12.1496 6.92278C11.791 6.95038 11.4592 6.84919 11.1275 6.7388C10.6792 6.58242 10.2578 6.38004 9.89017 6.06728C9.81844 6.01208 9.75567 5.94769 9.69291 5.8741C9.55842 5.69012 9.47772 5.55214 9.64808 5.28537C9.81844 5.0094 9.97983 4.73343 10.1502 4.44827C10.195 4.37468 10.2309 4.30108 10.2578 4.22749C10.3474 3.99752 10.3116 3.83194 10.0964 3.71235C9.95293 3.62956 9.78257 3.57437 9.62118 3.56517C9.15494 3.53757 8.67973 3.53757 8.21349 3.53757C6.99409 3.53757 5.76572 3.52838 4.54632 3.53757C4.29527 3.53757 4.01732 3.56517 3.73937 3.58357C3.65867 3.59277 3.58694 3.62036 3.51521 3.65716C3.23726 3.79514 3.10277 3.96992 3.28209 4.30108C3.46141 4.63225 3.65867 4.96341 3.85593 5.28537C4.00835 5.52454 3.98145 5.68092 3.79316 5.9017C3.54211 6.19606 3.21933 6.37084 2.87861 6.53642C2.4572 6.7388 2.02682 6.89518 1.55162 6.93198C1.30056 6.95038 1.10331 6.89518 0.968816 6.64681C0.852255 6.42604 0.690864 6.21446 0.547405 6.01208C0.332217 5.70852 0.20669 5.37736 0.179792 5.0002C0.179792 4.97261 0.161859 4.94501 0.152893 4.91741C0.152893 4.72424 0.152893 4.54026 0.152893 4.35628Z" fill="white"/>
<path d="M4.40288 4.60461C5.94506 4.60461 7.46035 4.60461 8.99357 4.60461C8.9308 4.79779 8.86804 4.99097 8.81424 5.17495C8.65285 5.70849 8.81424 6.15004 9.18186 6.52719C9.75569 7.11592 10.473 7.42869 11.2441 7.64946C11.3517 7.67706 11.3875 7.71385 11.3965 7.84264C11.4503 8.79013 11.5131 9.74682 11.5669 10.6943C11.5938 11.1083 11.6117 11.513 11.6296 11.927C11.6476 12.3317 11.4682 12.6445 11.1544 12.7457C11.0737 12.7733 10.9751 12.7825 10.8854 12.7825C8.14178 12.7825 5.39813 12.7825 2.64551 12.7825C2.20616 12.7825 1.91028 12.4973 1.91028 12.0466C1.91028 11.5866 1.94614 11.1267 1.97304 10.6759C1.99994 10.1424 2.03581 9.63643 2.0627 9.12129C2.0896 8.67054 2.1165 8.2106 2.13443 7.75985C2.13443 7.65866 2.20616 7.65866 2.25996 7.64946C2.8069 7.50228 3.32694 7.2815 3.80214 6.96874C4.14286 6.74797 4.45668 6.4904 4.636 6.11324C4.83326 5.71769 4.82429 5.31293 4.60013 4.92658C4.53737 4.82539 4.47461 4.7242 4.40288 4.60461ZM8.09695 11.0255C7.94452 10.8691 7.7921 10.7219 7.64864 10.5563C7.58588 10.4827 7.53208 10.4735 7.44242 10.5195C6.89548 10.7863 6.36647 10.7495 5.89127 10.3815C5.37123 9.99519 5.1919 9.44325 5.3264 8.80853C5.46986 8.1462 6.02576 7.67706 6.71616 7.64026C7.34379 7.60347 7.94452 8.00822 8.16868 8.61535C8.3211 9.0385 8.2942 9.45245 8.10591 9.85721C8.08798 9.894 8.07005 9.95839 8.07902 9.97679C8.24937 10.1608 8.41973 10.3356 8.59009 10.5103C9.28945 9.55364 9.12806 8.183 8.22248 7.39189C7.34379 6.61918 5.98093 6.68357 5.165 7.53907C4.33115 8.41297 4.29528 9.79281 5.08431 10.6943C5.8554 11.5866 7.20033 11.7338 8.09695 11.0255Z" fill="white"/>
</svg>
